<svg width="30" height="30" viewBox="0 0 30 30" fill="none" xmlns="http://www.w3.org/2000/svg">
<path d="M0 0V17.1589H4.28571V0H0ZM8.57143 0V17.1589C9.77143 17.1589 10.8429 17.545 11.6571 18.3601C12.4714 19.1751 16.5857 27.4543 17.1429 28.5696C17.7 29.685 18.8143 30.2426 19.9714 29.8994C21.0857 29.5563 21.6857 28.3551 21.3 27.1969C20.9571 26.0816 19.2857 20.3762 19.2857 19.3038C19.2857 18.2314 20.2286 17.1589 21.4286 17.1589H27.8571C29.0571 17.1589 30 16.2152 30 15.0141C30 13.8129 25.5857 1.32982 25.5857 1.32982C25.2429 0.557665 24.4714 0 23.5714 0L8.57143 0Z" fill="white"/>
</svg>
