<svg width="30" height="30" viewBox="0 0 30 30" fill="none" xmlns="http://www.w3.org/2000/svg">
<path d="M30 30V12.8411H25.7143V30H30ZM21.4286 30V12.8411C20.2286 12.8411 19.1571 12.455 18.3429 11.6399C17.5286 10.8249 13.4143 2.54571 12.8571 1.43038C12.3 0.315048 11.1857 -0.242619 10.0286 0.100561C8.91429 0.443739 8.31429 1.64486 8.7 2.80309C9.04286 3.91842 10.7143 9.62377 10.7143 10.6962C10.7143 11.7686 9.77143 12.8411 8.57143 12.8411H2.14286C0.942856 12.8411 -1.19209e-07 13.7848 -1.19209e-07 14.9859C-1.19209e-07 16.1871 4.41429 28.6702 4.41429 28.6702C4.75714 29.4423 5.52857 30 6.42857 30H21.4286Z" fill="white"/>
</svg>
