<svg width="30" height="30" viewBox="0 0 30 30" fill="none" xmlns="http://www.w3.org/2000/svg">
<path d="M22.5 0V3.75H20.625C19.3125 3.75 18.525 4.125 17.7 5.175L12.4125 11.85L6.675 5.175C5.85 4.2 5.025 3.75 3.75 3.75H0V7.5H3.75C3.5625 7.5 3.7875 7.65 3.8625 7.6125L9.975 14.775L3.75 22.5H0V26.25H3.75C5.0625 26.25 5.85 25.875 6.675 24.825L12.4125 17.6625L18.6375 24.825C19.4625 25.8 20.2875 26.25 21.5625 26.25H22.5V30L30 24.375L22.5 18.75V22.5H21.675C21.6375 22.4625 21.4875 22.35 21.45 22.3875L14.8875 14.6625L20.625 7.5H22.5V11.25L30 5.625L22.5 0Z" fill="white"/>
</svg>
