<svg width="47" height="40" viewBox="0 0 47 40" fill="none" xmlns="http://www.w3.org/2000/svg">
<path d="M11.7302 0C8.5044 0 5.6305 1.34897 3.46041 3.46041C1.34897 5.57185 0 8.44575 0 11.7302C0 14.956 1.34897 17.8299 3.46041 20L23.4604 40L43.4604 20C45.5718 17.8886 46.9208 15.0147 46.9208 11.7302C46.9208 8.5044 45.5718 5.6305 43.4604 3.46041C41.349 1.34897 38.4751 0 35.1906 0C31.9648 0 29.0909 1.34897 26.9208 3.46041C24.8094 5.57185 23.4604 8.44575 23.4604 11.7302C23.4604 8.5044 22.1114 5.6305 20 3.46041C17.8886 1.34897 15.0147 0 11.7302 0Z" fill="white"/>
</svg>
