<svg width="30" height="26" viewBox="0 0 30 26" fill="none" xmlns="http://www.w3.org/2000/svg">
<path d="M13.0072 0.0322084C5.83468 0.0322084 0 5.08893 0 11.3052C0 17.5214 5.83468 22.5781 13.0072 22.5781C15.1999 22.5781 17.3554 22.1272 19.1764 21.2575C19.3223 21.4097 19.484 21.5498 19.6595 21.6763L23.3759 24.8971C23.719 25.2317 24.1375 25.5021 24.6056 25.6915C25.0736 25.8809 25.5814 25.9854 26.0978 25.9986C26.6141 26.0118 27.1282 25.9333 27.6083 25.7681C28.0884 25.6029 28.5245 25.3543 28.8897 25.0378C29.255 24.7212 29.5418 24.3433 29.7324 23.9272C29.9231 23.5111 30.0136 23.0656 29.9984 22.6181C29.9832 22.1706 29.8626 21.7305 29.644 21.3248C29.4255 20.9192 29.1136 20.5565 28.7274 20.2591L25.0111 17.0382C24.83 16.8813 24.6308 16.741 24.4165 16.6195C25.4199 15.0413 26.0516 13.2054 26.0516 11.2729C26.0516 5.05672 20.217 0 13.0444 0L13.0072 0.0322084ZM13.0072 3.25305C18.173 3.25305 22.2981 6.82818 22.2981 11.3052C22.2981 13.4309 21.4062 15.3956 19.8453 16.845C19.8082 16.8772 19.771 16.9094 19.7338 16.9416C19.5583 17.068 19.3966 17.2082 19.2507 17.3603C17.6155 18.6487 15.3857 19.3895 12.9701 19.3895C7.80435 19.3895 3.67919 15.8143 3.67919 11.3374C3.67919 6.86039 7.80435 3.28526 12.9701 3.28526L13.0072 3.25305Z" fill="white"/>
</svg>
